<svg xmlns="http://www.w3.org/2000/svg"  viewBox="0 0 30 30" width="800px" height="800px"><path fill="#5e9c76" d="M15.5,26h-1c0-2.197,2.247-3.07,3.436-3.226l0.13,0.992C17.961,23.78,15.5,24.133,15.5,26z"/><path fill="#5e9c76" d="M15.5,28h-1c0-1.878-2.539-2.23-2.564-2.233l0.129-0.992C13.253,24.93,15.5,25.803,15.5,28z"/><path fill="#fce4ec" d="M12.433,0.625c0,0,5.133,1.521,5.133,5.228h-6.6C10.967,5.853,12.433,4.332,12.433,0.625z"/><path fill="#f8bbd0" d="M18.066,6.354H9.79l0.816-0.847c0.011-0.012,1.327-1.459,1.327-4.882v-0.67l0.642,0.19 c0.225,0.066,5.491,1.673,5.491,5.708V6.354z M11.903,5.354h5.126c-0.339-2.251-2.905-3.537-4.113-4.022 C12.816,3.283,12.316,4.589,11.903,5.354z"/><path fill="#fce4ec" d="M9.683,2.906c0,0,5.683,0.896,5.683,4.228L9.891,9.656C9.891,9.656,10.875,5.758,9.683,2.906z"/><path fill="#f8bbd0" d="M9.144,10.55l0.263-1.02c0.01-0.036,0.928-3.682-0.187-6.437L8.889,2.274l0.873,0.138 c0.249,0.039,6.104,1.005,6.104,4.722v0.32L9.144,10.55z M10.436,3.579c0.526,1.942,0.332,4.02,0.139,5.211l4.271-1.967 C14.58,4.874,11.845,3.937,10.436,3.579z"/><path fill="#fce4ec" d="M19.5,4V1.5c0,0-6,0.357-6,5L19.5,4z"/><path fill="#f8bbd0" d="M13,7.25V6.5c0-4.045,4.232-5.366,6.471-5.499L20,0.97v3.363L13,7.25z M19,2.058 c-1.277,0.185-4.427,0.917-4.932,3.664L19,3.667V2.058z"/><path fill="#5e9c76" d="M18 26L16 26 16 14 14 14 14 18 12 18 14 20 14.031 30 16 30 16 28z"/><path fill="#fce4ec" d="M20.496,11.875H20.5c0,2.775-2.465,4.625-5.508,4.625c-2.947,0-5.508-1.85-5.492-4.351 c-0.015-2.679,1.124-4.158,3.783-6.008c2.237-1.558,5.986-2.77,7.125-3.14C19.269,8.181,20.5,7.991,20.496,11.875z"/><path fill="#f8bbd0" d="M14.955,17c-1.828,0-3.529-0.659-4.663-1.808C9.44,14.33,8.993,13.277,9,12.146 c-0.016-3.027,1.444-4.646,3.973-6.416c2.278-1.597,5.984-2.805,7.202-3.201L21,2.261l-0.178,0.849 c-0.689,3.149-0.487,4.204-0.231,5.539c0.137,0.718,0.29,1.52,0.323,2.727h0.011v0.5C20.925,14.845,18.415,17,14.955,17z M19.676,3.749c-2.77,0.946-4.829,1.887-6.135,2.802c-2.698,1.89-3.56,3.249-3.547,5.596c-0.005,0.864,0.342,1.672,1.003,2.341 C11.932,15.435,13.412,16,14.955,16c2.822,0,4.886-1.662,4.974-3.973l-0.001-0.153c0.001-1.397-0.158-2.23-0.312-3.036 C19.373,7.572,19.161,6.464,19.676,3.749z"/><path fill="#99c99e" d="M22.366,22.4c-1.587,1.587-4.733,1.013-4.733,1.013s-0.574-3.146,1.013-4.733 c1.587-1.587,4.733-1.013,4.733-1.013S23.953,20.814,22.366,22.4z"/><path fill="#5e9c76" d="M18.923,24c-0.779,0-1.351-0.101-1.408-0.111l-0.341-0.063l-0.063-0.342 c-0.026-0.14-0.603-3.449,1.157-5.213c1.76-1.765,5.058-1.184,5.199-1.16l0.341,0.063l0.063,0.342 c0.026,0.14,0.603,3.449-1.157,5.213C21.665,23.781,20.07,24,18.923,24z M18.053,22.945c0.816,0.088,2.855,0.171,3.951-0.928 c1.095-1.098,1.011-3.138,0.925-3.962c-0.821-0.089-2.857-0.169-3.951,0.928C17.883,20.08,17.966,22.121,18.053,22.945z"/><path fill="#99c99e" d="M11.406,20.628c1.591,1.591,1.016,4.746,1.016,4.746s-3.155,0.575-4.746-1.016 c-1.591-1.591-1.016-4.746-1.016-4.746S9.815,19.037,11.406,20.628z"/><path fill="#5e9c76" d="M11.074,26c-1.151,0-2.751-0.219-3.803-1.27c-1.765-1.762-1.186-5.066-1.161-5.206l0.063-0.341 l0.341-0.063c0.141-0.024,3.45-0.603,5.214,1.159s1.185,5.066,1.16,5.206l-0.063,0.341l-0.341,0.063 C12.428,25.899,11.854,26,11.074,26z M7.053,20.06c-0.086,0.822-0.171,2.864,0.929,3.961c1.103,1.103,3.145,1.016,3.966,0.929 c0.086-0.822,0.171-2.864-0.928-3.961C9.914,19.886,7.871,19.974,7.053,20.06z"/></svg>